<?xml version="1.0" encoding="utf-8"?>
<!-- Generator: Adobe Illustrator 19.2.0, SVG Export Plug-In . SVG Version: 6.00 Build 0)  -->
<svg version="1.1" id="Layer_1" xmlns="http://www.w3.org/2000/svg" xmlns:xlink="http://www.w3.org/1999/xlink" x="0px" y="0px"
	 viewBox="0 0 45.8 45.8" style="enable-background:new 0 0 45.8 45.8;" xml:space="preserve">
<style type="text/css">
	.st0{fill:#00A79D;}
	.st1{fill:#FFFFFF;}
</style>
<g>
	<g>
		<circle class="st0" cx="22.9" cy="22.9" r="22.9"/>
	</g>
	<g>
		<path class="st1" d="M28.6,28.7c-1.1,0-2,0.4-2.7,1.1l-10-5.8c0.1-0.3,0.1-0.6,0.1-1c0-0.3-0.1-0.7-0.1-1l9.9-5.8
			c0.8,0.7,1.7,1.1,2.9,1.1c2.3,0,4.2-1.9,4.2-4.2c0-2.3-1.9-4.2-4.2-4.2c-2.3,0-4.2,1.9-4.2,4.2c0,0.3,0.1,0.7,0.1,1l-9.9,5.8
			c-0.8-0.7-1.7-1.1-2.9-1.1c-2.3,0-4.2,1.9-4.2,4.2s1.9,4.2,4.2,4.2c1.1,0,2.1-0.4,2.9-1.1l10,5.8c-0.1,0.3-0.1,0.6-0.1,0.9
			c0,2.3,1.8,4.1,4.1,4.1c2.3,0,4.1-1.8,4.1-4.1C32.7,30.5,30.8,28.7,28.6,28.7z"/>
	</g>
</g>
</svg>
